<svg width="148" height="30" viewBox="0 0 148 30" fill="none" xmlns="http://www.w3.org/2000/svg">
<path d="M40.0387 9.81055H41.6476L46.1497 20.252H44.0241L43.0499 17.8628H38.5184L37.5737 20.252H35.4924L40.0387 9.81055ZM42.4004 16.27L40.7915 12.0227L39.1531 16.27H42.4004Z" fill="#333333"/>
<path d="M48.1445 9.81055H50.2848L53.1336 17.7006L56.0709 9.81055H58.0787L53.8569 20.252H52.2481L48.1445 9.81055Z" fill="#333333"/>
<path d="M64.7252 9.81055H66.3345L70.8361 20.252H68.7106L67.7366 17.8628H63.2049L62.2601 20.252H60.1791L64.7252 9.81055ZM67.087 16.27L65.4782 12.0227L63.8397 16.27H67.087Z" fill="#333333"/>
<path d="M74.95 9.81055H76.8099V18.5707H81.2527V20.252H74.95V9.81055Z" fill="#333333"/>
<path d="M88.9362 9.81055H90.5455L95.0471 20.252H92.9217L91.9477 17.8628H87.4159L86.4716 20.252H84.3901L88.9362 9.81055ZM91.298 16.27L89.6892 12.0227L88.0507 16.27H91.298Z" fill="#333333"/>
<path d="M99.161 9.81055H101.626L106.689 17.5679H106.719V9.81055H108.578V20.252H106.217L101.05 12.2439H101.021V20.252H99.161V9.81055Z" fill="#333333"/>
<path d="M121.035 12.259C120.651 11.8461 120.277 11.5707 119.913 11.4331C119.559 11.2955 119.199 11.2267 118.835 11.2267C118.294 11.2267 117.802 11.3249 117.359 11.5216C116.926 11.7084 116.552 11.9739 116.237 12.318C115.923 12.6523 115.677 13.0455 115.499 13.4978C115.332 13.9501 115.249 14.4368 115.249 14.9578C115.249 15.5182 115.332 16.0344 115.499 16.5063C115.677 16.9783 115.923 17.3863 116.237 17.7304C116.552 18.0745 116.926 18.3449 117.359 18.5415C117.802 18.7382 118.294 18.8365 118.835 18.8365C119.259 18.8365 119.667 18.7382 120.061 18.5415C120.464 18.3351 120.838 18.0106 121.182 17.5682L122.718 18.6595C122.245 19.3084 121.669 19.7804 120.99 20.0753C120.311 20.3703 119.588 20.5177 118.821 20.5177C118.013 20.5177 117.271 20.3899 116.592 20.1343C115.923 19.8688 115.342 19.5001 114.85 19.0282C114.368 18.5465 113.989 17.9713 113.713 17.3027C113.438 16.6342 113.3 15.8918 113.3 15.0758C113.3 14.2401 113.438 13.483 113.713 12.8047C113.989 12.1164 114.368 11.5314 114.85 11.0497C115.342 10.5679 115.923 10.1992 116.592 9.94356C117.271 9.67814 118.013 9.54541 118.821 9.54541C119.529 9.54541 120.183 9.67319 120.784 9.92884C121.394 10.1746 121.959 10.5974 122.481 11.1971L121.035 12.259Z" fill="#333333"/>
<path d="M126.918 9.81055H128.778V13.9694H133.663V9.81055H135.523V20.252H133.663V15.6506H128.778V20.252H126.918V9.81055Z" fill="#333333"/>
<path d="M140.811 9.81055H147.733V11.4918H142.671V14.0579H147.468V15.7392H142.671V18.5707H147.999V20.252H140.811V9.81055Z" fill="#333333"/>
<path fill-rule="evenodd" clip-rule="evenodd" d="M14.9972 29.9996C23.2759 29.9996 29.9872 23.2942 29.9872 15.0227C29.9872 6.75125 23.2759 0.0458984 14.9972 0.0458984C6.71844 0.0458984 0.00720215 6.75125 0.00720215 15.0227C0.00720215 23.2942 6.71844 29.9996 14.9972 29.9996ZM10.4679 21.8079H6.95137C6.11763 21.8079 5.70074 21.8079 5.45108 21.6466C5.18126 21.4723 5.01101 21.1797 4.99299 20.8594C4.97626 20.563 5.18274 20.2016 5.59569 19.4788L5.59588 19.4785L13.2951 6.00213C13.7141 5.26862 13.9236 4.90186 14.1903 4.76538C14.4782 4.61785 14.8198 4.6176 15.108 4.76468C15.3748 4.90079 15.5849 5.26727 16.0049 6.00014L17.7807 9.09778L17.7807 9.09783C18.0862 9.63074 18.2389 9.89718 18.3061 10.1783C18.3793 10.4844 18.3794 10.8032 18.3065 11.1093C18.2396 11.3905 18.0871 11.6571 17.782 12.1903L13.178 20.2375C12.8685 20.7786 12.7137 21.049 12.5017 21.2513C12.2709 21.4713 11.991 21.6335 11.6851 21.7244C11.404 21.8079 11.092 21.8079 10.4679 21.8079ZM23.0137 21.8079H18.9367C18.0954 21.8079 17.6747 21.8079 17.4243 21.6452C17.1537 21.4694 16.984 21.1746 16.968 20.8528C16.9531 20.5549 17.1649 20.1919 17.5883 19.4662L19.6234 15.9777C20.0415 15.2612 20.2506 14.9028 20.5152 14.7686C20.8012 14.6236 21.1394 14.6234 21.4257 14.768C21.6906 14.9018 21.9001 15.2597 22.3191 15.9756L22.3192 15.9758L24.3611 19.4643C24.7862 20.1905 24.9987 20.5536 24.9842 20.8517C24.9685 21.1738 24.7988 21.4689 24.5281 21.645C24.2776 21.8079 23.8563 21.8079 23.0137 21.8079Z" fill="#333333"/>
</svg>
