<svg width="113" height="20" viewBox="0 0 113 20" fill="none" xmlns="http://www.w3.org/2000/svg">
<path d="M13.925 7.1C13.925 8.11667 13.6917 9.05 13.225 9.9C12.7583 10.7333 12.0417 11.4083 11.075 11.925C10.1083 12.4417 8.90833 12.7 7.475 12.7H4.825V19H0.55V1.45H7.475C8.875 1.45 10.0583 1.69167 11.025 2.175C11.9917 2.65833 12.7167 3.325 13.2 4.175C13.6833 5.025 13.925 6 13.925 7.1ZM7.15 9.3C7.96667 9.3 8.575 9.10833 8.975 8.725C9.375 8.34167 9.575 7.8 9.575 7.1C9.575 6.4 9.375 5.85833 8.975 5.475C8.575 5.09167 7.96667 4.9 7.15 4.9H4.825V9.3H7.15ZM22.5006 19.2C21.1339 19.2 19.9006 18.9083 18.8006 18.325C17.7173 17.7417 16.8589 16.9083 16.2256 15.825C15.6089 14.7417 15.3006 13.475 15.3006 12.025C15.3006 10.5917 15.6173 9.33333 16.2506 8.25C16.8839 7.15 17.7506 6.30833 18.8506 5.725C19.9506 5.14167 21.1839 4.85 22.5506 4.85C23.9173 4.85 25.1506 5.14167 26.2506 5.725C27.3506 6.30833 28.2173 7.15 28.8506 8.25C29.4839 9.33333 29.8006 10.5917 29.8006 12.025C29.8006 13.4583 29.4756 14.725 28.8256 15.825C28.1923 16.9083 27.3173 17.7417 26.2006 18.325C25.1006 18.9083 23.8673 19.2 22.5006 19.2ZM22.5006 15.5C23.3173 15.5 24.0089 15.2 24.5756 14.6C25.1589 14 25.4506 13.1417 25.4506 12.025C25.4506 10.9083 25.1673 10.05 24.6006 9.45C24.0506 8.85 23.3673 8.55 22.5506 8.55C21.7173 8.55 21.0256 8.85 20.4756 9.45C19.9256 10.0333 19.6506 10.8917 19.6506 12.025C19.6506 13.1417 19.9173 14 20.4506 14.6C21.0006 15.2 21.6839 15.5 22.5006 15.5ZM36.3436 0.5V19H32.0686V0.5H36.3436ZM47.9666 19L43.7166 13.15V19H39.4416V0.5H43.7166V10.725L47.9416 5.05H53.2166L47.4166 12.05L53.2666 19H47.9666ZM54.0457 12C54.0457 10.5667 54.3124 9.30833 54.8457 8.225C55.3957 7.14167 56.1374 6.30833 57.0707 5.725C58.004 5.14167 59.0457 4.85 60.1957 4.85C61.179 4.85 62.0374 5.05 62.7707 5.45C63.5207 5.85 64.0957 6.375 64.4957 7.025V5.05H68.7707V19H64.4957V17.025C64.079 17.675 63.4957 18.2 62.7457 18.6C62.0124 19 61.154 19.2 60.1707 19.2C59.0374 19.2 58.004 18.9083 57.0707 18.325C56.1374 17.725 55.3957 16.8833 54.8457 15.8C54.3124 14.7 54.0457 13.4333 54.0457 12ZM64.4957 12.025C64.4957 10.9583 64.1957 10.1167 63.5957 9.5C63.0124 8.88333 62.2957 8.575 61.4457 8.575C60.5957 8.575 59.8707 8.88333 59.2707 9.5C58.6874 10.1 58.3957 10.9333 58.3957 12C58.3957 13.0667 58.6874 13.9167 59.2707 14.55C59.8707 15.1667 60.5957 15.475 61.4457 15.475C62.2957 15.475 63.0124 15.1667 63.5957 14.55C64.1957 13.9333 64.4957 13.0917 64.4957 12.025ZM71.0135 12C71.0135 10.5667 71.2801 9.30833 71.8135 8.225C72.3635 7.14167 73.1051 6.30833 74.0385 5.725C74.9718 5.14167 76.0135 4.85 77.1635 4.85C78.0801 4.85 78.9135 5.04167 79.6635 5.425C80.4301 5.80833 81.0301 6.325 81.4635 6.975V0.5H85.7385V19H81.4635V17C81.0635 17.6667 80.4885 18.2 79.7385 18.6C79.0051 19 78.1468 19.2 77.1635 19.2C76.0135 19.2 74.9718 18.9083 74.0385 18.325C73.1051 17.725 72.3635 16.8833 71.8135 15.8C71.2801 14.7 71.0135 13.4333 71.0135 12ZM81.4635 12.025C81.4635 10.9583 81.1635 10.1167 80.5635 9.5C79.9801 8.88333 79.2635 8.575 78.4135 8.575C77.5635 8.575 76.8385 8.88333 76.2385 9.5C75.6551 10.1 75.3635 10.9333 75.3635 12C75.3635 13.0667 75.6551 13.9167 76.2385 14.55C76.8385 15.1667 77.5635 15.475 78.4135 15.475C79.2635 15.475 79.9801 15.1667 80.5635 14.55C81.1635 13.9333 81.4635 13.0917 81.4635 12.025ZM95.1813 19.2C93.8146 19.2 92.5813 18.9083 91.4813 18.325C90.3979 17.7417 89.5396 16.9083 88.9063 15.825C88.2896 14.7417 87.9813 13.475 87.9813 12.025C87.9813 10.5917 88.2979 9.33333 88.9312 8.25C89.5646 7.15 90.4313 6.30833 91.5313 5.725C92.6313 5.14167 93.8646 4.85 95.2313 4.85C96.5979 4.85 97.8313 5.14167 98.9313 5.725C100.031 6.30833 100.898 7.15 101.531 8.25C102.165 9.33333 102.481 10.5917 102.481 12.025C102.481 13.4583 102.156 14.725 101.506 15.825C100.873 16.9083 99.9979 17.7417 98.8813 18.325C97.7813 18.9083 96.5479 19.2 95.1813 19.2ZM95.1813 15.5C95.9979 15.5 96.6896 15.2 97.2563 14.6C97.8396 14 98.1313 13.1417 98.1313 12.025C98.1313 10.9083 97.8479 10.05 97.2813 9.45C96.7313 8.85 96.0479 8.55 95.2313 8.55C94.3979 8.55 93.7063 8.85 93.1563 9.45C92.6063 10.0333 92.3313 10.8917 92.3313 12.025C92.3313 13.1417 92.5979 14 93.1313 14.6C93.6813 15.2 94.3646 15.5 95.1813 15.5ZM112.524 15.375V19H110.349C108.799 19 107.591 18.625 106.724 17.875C105.858 17.1083 105.424 15.8667 105.424 14.15V8.6H103.724V5.05H105.424V1.65H109.699V5.05H112.499V8.6H109.699V14.2C109.699 14.6167 109.799 14.9167 109.999 15.1C110.199 15.2833 110.533 15.375 110.999 15.375H112.524Z" fill="#56D62A"/>
</svg>
