<svg width="64" height="64" viewBox="0 0 64 64" fill="none" xmlns="http://www.w3.org/2000/svg">
<circle cx="32" cy="32" r="32" fill="#222E5E"/>
<g clip-path="url(#clip0_749_2644)">
<path d="M45.944 20.947C45.922 20.8437 45.8728 20.7481 45.8014 20.6702C45.73 20.5924 45.639 20.5351 45.538 20.5042C45.1701 20.4309 44.7892 20.4581 44.4355 20.583C44.4355 20.583 19.9022 29.3995 18.5005 30.376C18.1995 30.5877 18.098 30.7085 18.0472 30.852C17.8057 31.552 18.56 31.8547 18.56 31.8547L24.8827 33.9145C24.9895 33.9337 25.0993 33.9271 25.203 33.8952C26.6415 32.987 39.6755 24.7567 40.428 24.4802C40.547 24.4452 40.6345 24.4802 40.603 24.566C40.302 25.616 29.0425 35.6242 28.9812 35.6855C28.9514 35.7104 28.928 35.7423 28.913 35.7782C28.8981 35.8142 28.8921 35.8532 28.8955 35.892L28.3057 42.066C28.3057 42.066 28.0572 43.991 29.9787 42.066C31.342 40.7027 32.651 39.5722 33.3037 39.0245C35.4772 40.526 37.817 42.185 38.8267 43.0495C38.9958 43.2142 39.1965 43.3429 39.4166 43.428C39.6368 43.5131 39.8719 43.5528 40.1077 43.5447C40.3982 43.5088 40.6709 43.3855 40.8896 43.1911C41.1084 42.9967 41.2629 42.7404 41.3327 42.4562C41.3327 42.4562 45.8145 24.475 45.9632 22.0547C45.9772 21.8185 46 21.675 46 21.5C46.0064 21.314 45.9876 21.1279 45.944 20.947Z" fill="white"/>
</g>
<defs>
<clipPath id="clip0_749_2644">
<rect width="28" height="28" fill="white" transform="translate(18 18)"/>
</clipPath>
</defs>
</svg>
