<svg width="64" height="64" viewBox="0 0 64 64" fill="none" xmlns="http://www.w3.org/2000/svg">
<circle cx="32" cy="32" r="32" fill="#222E5E"/>
<path d="M46 23.25C44.95 23.775 43.9 23.95 42.675 24.125C43.9 23.425 44.775 22.375 45.125 20.975C44.075 21.675 42.85 22.025 41.45 22.375C40.4 21.325 38.825 20.625 37.25 20.625C34.275 20.625 31.65 23.25 31.65 26.4C31.65 26.925 31.65 27.275 31.825 27.625C27.1 27.45 22.725 25.175 19.925 21.675C19.4 22.55 19.225 23.425 19.225 24.65C19.225 26.575 20.275 28.325 21.85 29.375C20.975 29.375 20.1 29.025 19.225 28.675C19.225 31.475 21.15 33.75 23.775 34.275C23.25 34.45 22.725 34.45 22.2 34.45C21.85 34.45 21.5 34.45 21.15 34.275C21.85 36.55 23.95 38.3 26.575 38.3C24.65 39.875 22.2 40.75 19.4 40.75C18.875 40.75 18.525 40.75 18 40.75C20.625 42.325 23.6 43.375 26.75 43.375C37.25 43.375 43.025 34.625 43.025 27.1C43.025 26.925 43.025 26.575 43.025 26.4C44.25 25.525 45.3 24.475 46 23.25Z" fill="white"/>
</svg>
