<svg width="64" height="64" viewBox="0 0 64 64" fill="none" xmlns="http://www.w3.org/2000/svg">
<circle cx="32" cy="32" r="32" fill="#222E5E"/>
<path d="M45.65 26.4C45.3 24.125 44.25 22.55 41.8 22.2C37.95 21.5 32 21.5 32 21.5C32 21.5 26.05 21.5 22.2 22.2C19.75 22.55 18.525 24.125 18.35 26.4C18 28.675 18 32 18 32C18 32 18 35.325 18.35 37.6C18.7 39.875 19.75 41.45 22.2 41.8C26.05 42.5 32 42.5 32 42.5C32 42.5 37.95 42.5 41.8 41.8C44.25 41.275 45.3 39.875 45.65 37.6C46 35.325 46 32 46 32C46 32 46 28.675 45.65 26.4ZM28.5 37.25V26.75L37.25 32L28.5 37.25Z" fill="white"/>
</svg>
